<?xml version="1.0" encoding="utf-8"?>
<!-- Generator: Adobe Illustrator 20.0.0, SVG Export Plug-In . SVG Version: 6.00 Build 0)  -->
<svg version="1.1" id="Layer_1" xmlns="http://www.w3.org/2000/svg" xmlns:xlink="http://www.w3.org/1999/xlink" x="0px" y="0px"
	 viewBox="0 0 50.2 46.8" style="enable-background:new 0 0 50.2 46.8;" xml:space="preserve">
<style type="text/css">
	.st0{fill:#FFFFFF;}
</style>
<path class="st0" d="M50.2,30.3c0,12.6-2.7,16.5-2.7,16.5h-4.7v-4h-36v4H2.7c0,0-2.7-3.9-2.7-16.5S4.5,3.6,4.5,3.6s0.9-2,2.5-2L25,0
	l18.1,1.5c1.5,0,2.6,2.1,2.6,2.1S50.2,17.6,50.2,30.3z"/>
<circle cx="37.2" cy="32.3" r="2"/>
<circle cx="43.1" cy="32.3" r="1.4"/>
<polygon points="46.2,23.7 33.2,23.7 33.2,6.1 42.7,6.1 "/>
<circle cx="12.7" cy="32.3" r="2"/>
<circle cx="6.8" cy="32.3" r="1.4"/>
<polygon points="3.7,23.7 16.7,23.7 16.7,6.1 7.2,6.1 "/>
<rect x="19.5" y="6.1" width="11.1" height="17.6"/>
</svg>
